<svg enable-background="new 0 0 690.76 229.31" viewBox="0 0 690.76 229.31" xmlns="http://www.w3.org/2000/svg"><path d="m43.54 4c-21.83 0-39.54 17.71-39.54 39.54s17.71 39.54 39.54 39.54h125.21c17.44 0 31.58 14.14 31.58 31.58s-14.14 31.58-31.58 31.58h-70.28c-21.84 0-39.54 17.7-39.54 39.54 0 21.83 17.7 39.54 39.54 39.54h310.76c21.83 0 39.54-17.71 39.54-39.54 0-21.84-17.7-39.54-39.54-39.54h-126.34c-17.44 0-31.59-14.14-31.59-31.58s14.15-31.58 31.59-31.58h364.34c21.83 0 39.54-17.71 39.54-39.54s-17.71-39.54-39.54-39.54z" fill="none" stroke="#e6e3e3" stroke-linecap="round" stroke-miterlimit="10" stroke-width="8"/></svg>