<svg enable-background="new 0 0 211.25 21.84" viewBox="0 0 211.25 21.84" xmlns="http://www.w3.org/2000/svg"><path d="m1.35 12.42c0 .1-.05.75-.05.85 0 2.75 3.66 3.31 5.26 3.31 3.26 0 4.21-1.75 4.21-2.7 0-1.8-1.85-2.3-5.11-3.21-1.55-.45-5.66-1.56-5.66-5.16 0-2 1.95-5.31 7.11-5.31 3.86 0 7.11 1.85 7.11 4.31 0 .65-.4 1.9-1.9 1.9-.3 0-1.95 0-2.05-2.15-.15-2.36-2.21-2.36-2.56-2.36-2.25 0-3.51 1.7-3.51 3.56 0 2.3 1.65 2.7 4.31 3.31 1.6.4 6.86 1.55 6.86 5.61 0 3.36-3.81 6.31-8.41 6.31-3.01 0-6.91-1.25-6.91-5.16 0-1.8.9-3.26 1.15-3.26.05 0 .15.05.15.15z" fill="#334a61"/><path d="m39.54 10.27c0 5.61-4.56 10.42-10.27 10.42-5.76 0-10.32-4.81-10.32-10.42 0-5.71 4.71-10.07 10.32-10.07 5.61 0 10.27 4.41 10.27 10.07zm-4.76-.75c0-4.46-2.6-6.66-5.06-6.66-3.26 0-6.06 3.71-6.06 8.16 0 3.71 2 6.86 5.21 6.86 3.36 0 5.91-3.91 5.91-8.36z" fill="#334a61"/><path d="m49.95 17.83c0 1.15-.4 2.85-2.6 2.85-1.1 0-2.5-.5-2.5-2.85v-13.42c0-2.75 0-3.05-.45-3.56-.1-.15-.95-.35-.95-.5 0-.2.9-.2 1.3-.2 5.11 0 5.16 1.9 5.21 3.66.8-2.1 2.35-3.31 4.66-3.31 2.25 0 2.7 1.35 2.7 2.1 0 1-.75 2.05-2 2.05-.4 0-2.3-.55-2.7-.55-2.65 0-2.65 1.5-2.65 2.45v11.28z" fill="#334a61"/><path d="m67.82 20.73c-4.56 0-8.16-4.36-8.16-9.62 0-5.9 4.46-11.11 10.87-11.11 7.01 0 8.61 6.61 8.61 8.36 0 .2-.05.7-.25.7-.15 0-.25-.25-.3-.35-.4-1.2-2.85-4.71-7.06-4.71-4.51 0-7.86 3.76-7.86 7.76 0 3.31 2.25 5.16 5.21 5.16 2.7 0 4.81-1.6 4.81-3.26 0-2.4.85-3.91 2.95-3.91 2.65 0 2.7 2.2 2.75 3.91.05 1.75.1 4.91 2.75 7.06.15.15 1.15.75 1.15.8 0 .15-.2.15-.4.15-3.71 0-6.51-1.75-7.71-3.71-1.9 1.52-4.65 2.77-7.36 2.77z" fill="#334a61"/><g fill="#fafafa"><path d="m102.31 9.17c.75 0 1.3.65 1.3 1.25 0 .8-.65 1.3-1.3 1.3h-15.93c-.7 0-1.3-.6-1.3-1.25 0-.75.6-1.3 1.3-1.3z"/><path d="m126.95 17.83c0 1.15-.4 2.85-2.65 2.85-1.55 0-2.45-.85-2.45-2.85v-6.81c0-3.86-.05-7.51-3.76-7.51-3.86 0-3.86 4.11-3.86 6.26v8.06c0 1.15-.4 2.85-2.65 2.85-1.05 0-2.45-.5-2.45-2.85v-13.37c0-2.95 0-3.26-.6-3.71-.15-.05-.8-.2-.8-.3 0-.25.9-.25 1.25-.25 1.55 0 4.81.15 5.16 2.5 1.55-1.8 3.66-2.45 5.26-2.45 2.3 0 4.66.95 6.46 3.96 1.75-3.46 4.96-3.96 6.26-3.96 3.61 0 7.81 3.26 7.86 8.61.05 7.66.05 8.51 1.55 10.72.55.8 1.25 1.5 2.2 1.9.1.05.15.1.15.15 0 .2-.15.2-.4.2-8.96 0-8.96-7.06-8.96-9.17 0-2.4 0-5.01-.1-5.71-.3-1.55-1.1-3.46-3.61-3.46-3.16 0-3.71 2.9-3.76 3.51-.1.65-.1 3.26-.1 4.26z"/><path d="m153.45 20.73c-4.56 0-8.16-4.36-8.16-9.62 0-5.91 4.46-11.12 10.87-11.12 7.01 0 8.61 6.61 8.61 8.36 0 .2-.05.7-.25.7-.15 0-.25-.25-.3-.35-.4-1.2-2.85-4.71-7.06-4.71-4.51 0-7.86 3.76-7.86 7.76 0 3.31 2.25 5.16 5.21 5.16 2.7 0 4.81-1.6 4.81-3.26 0-2.4.85-3.91 2.95-3.91 2.65 0 2.7 2.2 2.75 3.91.05 1.75.1 4.91 2.75 7.06.15.15 1.15.75 1.15.8 0 .15-.2.15-.4.15-3.71 0-6.51-1.75-7.71-3.71-1.9 1.53-4.66 2.78-7.36 2.78z"/><path d="m177.4 17.83c0 1.15-.4 2.85-2.6 2.85-1.1 0-2.5-.5-2.5-2.85v-13.42c0-2.75 0-3.05-.45-3.56-.1-.15-.95-.35-.95-.5 0-.2.9-.2 1.3-.2 5.11 0 5.16 1.9 5.21 3.66.8-2.1 2.35-3.31 4.66-3.31 2.25 0 2.7 1.35 2.7 2.1 0 1-.75 2.05-2 2.05-.4 0-2.3-.55-2.7-.55-2.65 0-2.65 1.5-2.65 2.45v11.28z"/><path d="m189.56 4.46c0-2.75 0-3.05-.45-3.56-.1-.15-.95-.35-.95-.45 0-.25.9-.25 1.3-.25 5.21 0 5.21 1.95 5.21 4.26v4.71c0 4.51 0 7.71 3.71 7.71 3.86 0 3.86-4.31 3.86-5.66v-8.47c0-1.45 1.2-2.55 2.55-2.55 1.6 0 2.55 1.3 2.55 2.55v10.32c0 1.75 0 5.81 2.95 7.96.15.1.95.45.95.65 0 .15-.1.15-.45.15-3.71 0-6.66-1.4-7.91-4.76-1.45 2.25-3.61 3.56-6.26 3.56-3.61 0-7.06-3-7.06-7.96z"/></g></svg>