<svg enable-background="new 0 0 91.65 105.68" viewBox="0 0 91.65 105.68" xmlns="http://www.w3.org/2000/svg"><path d="m37.9 22.54h-27.22c-.67 0-3.84.5-4.51.5-1 0-3.34-3.67-4.01-4.17-.32-.17-2.16-1.01-2.16-1.34s.33-.67.83-.67h37.07v-5.51c0-5.18-.5-7.85-1.67-9.02-.33-.33-2.34-1.17-2.34-1.5 0-.67.33-.83 2.67-.83 6.84 0 16.53 1.5 16.53 10.52v6.34h16.86c2.67 0 5.34-.33 7.68-3.17 2.67-3.01 4.01-4.51 7.01-4.51 3.51 0 7.01 3.01 7.01 7.01 0 3.01-2.17 6.34-7.68 6.34h-30.88v12.35c0 1.84.17 9.52.33 11.02h4.67c2.17 0 5.18-.33 7.51-3.01 3.01-3.34 4.17-4.84 7.18-4.84 3.51 0 7.01 3.17 7.01 7.01 0 2.84-1.84 6.51-7.68 6.51h-18.7c0 3.84.17 9.52-.5 15.86 22.2 3.17 33.56 4.67 33.56 13.69 0 4.67-4.34 8.01-8.18 8.01-2.5 0-3.84-.5-15.03-5.01-3.34-1.34-7.85-3.01-12.35-4.34-4.17 15.86-14.69 25.88-27.71 25.88-10.68 0-18.2-9.02-18.2-18.53 0-11.02 10.52-21.54 32.22-21.04.67-6.01.67-8.01.5-14.52h-15.18c-.83 0-4.01.33-4.67.33-.83 0-1-.17-2.34-2.34-1.17-1.84-1.5-1.84-3.34-2.34-.17-.17-.33-.17-.33-.67 0-.67.5-.67.83-.67h25.21zm-9.02 54.59c-8.35 0-14.36 2.67-14.36 6.68 0 3.01 3.01 5.51 7.01 5.51 1.84 0 9.18 0 13.52-11.69-3-.5-5.67-.5-6.17-.5z" fill="#fafafa"/></svg>