<svg enable-background="new 0 0 73.62 109.02" viewBox="0 0 73.62 109.02" xmlns="http://www.w3.org/2000/svg"><path d="m43.07 65.11c-6.01 0-10.02 1.34-17.86 4.01-11.02 3.84-12.35 4.34-14.02 4.34-1.51 0-11.19-.34-11.19-13.53 0-30.72 10.35-30.72 18.03-30.72 2.67 0 3.01 0 3.01.67 0 .5-2.17 1.84-2.34 2.17-3.17 4.51-3.51 20.2-3.51 20.7 0 4.67.67 9.68 5.34 9.68 1.84 0 3.67-.5 10.85-3.01 8.51-3.17 14.36-5.34 22.2-5.34 14.36 0 20.03 9.02 20.03 19.37 0 19.7-21.37 35.56-39.07 35.56-10.52 0-15.03-6.34-15.03-12.19 0-1.34.33-4.01 1.17-4.01.33 0 .83 1.17 1 1.5 1.17 3.01 5.84 3.34 7.35 3.34 12.52 0 26.04-13.86 26.04-23.87.02-7.5-7.32-8.67-12-8.67zm-5.17-41.74c-3.67 0-11.02-2.5-11.02-12.02 0-6.51 0-9.02-4.67-9.02-1.84 0-2.84 0-2.84-.67 0-1.33 9.01-1.66 10.68-1.66 4.01 0 18.87 0 18.87 12.35 0 6.18-5.01 11.02-11.02 11.02z" fill="#fafafa"/></svg>