<svg enable-background="new 0 0 72.03 104.56" viewBox="0 0 72.03 104.56" xmlns="http://www.w3.org/2000/svg"><path d="m72.03 63.86c0 8.86-3.92 16.01-9.88 22.48 3.92 2.89 5.96 4.43 5.96 8.51 0 5.45-4.77 7.15-6.81 7.15-2.55 0-3.41-.68-10.05-6.3-9.2 5.96-19.24 8.85-24.35 8.85-7.83 0-14.81-6.98-14.81-16.01 0-9.54 7.83-15.16 17.37-15.16 7.15 0 14.64 3.07 21.8 6.47 9.37-7.32 11.41-13.11 11.41-17.37 0-9.54-9.88-13.11-17.88-13.11-10.05 0-23.16 6.47-26.56 8.17-6.3 3.07-9.37 4.77-11.24 4.77-3.24.01-6.99-2.71-6.99-6.8 0-2.72.17-2.89 5.79-9.37 12.09-13.62 25.03-28.44 25.03-35.93 0-2.89-2.38-3.92-5.96-3.92-3.92 0-9.03 1.36-10.56 1.87-3.06 1.04-3.4 1.04-3.57 1.04-1.02 0-4.09-3.24-4.94-3.41-.17-.17-1.87-.51-1.87-1.02 0-1.02 10.38-4.77 21.62-4.77 19.25 0 26.06 9.88 26.06 16.18 0 8.34-6.64 16.35-14.47 23.84 27.07-.34 34.9 12.6 34.9 23.84zm-43.93 16.34c-1.87 0-4.43 1.36-4.43 4.43 0 2.89 2.55 4.94 5.28 4.94 3.24 0 9.03-2.38 11.07-3.07-3.07-2.55-8.18-6.3-11.92-6.3z" fill="#fafafa"/></svg>