<svg enable-background="new 0 0 90.65 108.35" viewBox="0 0 90.65 108.35" xmlns="http://www.w3.org/2000/svg"><path d="m10.85 56.26c-.83 0-4.01.5-4.67.5-1 0-3.51-3.84-4.17-4.34-.33-.17-2-.83-2-1.17 0-.5.67-.67.83-.67h61.77c5.01 0 7.35-2 9.85-4.67 2.84-3.17 4.84-5.34 9.18-5.34 4.01 0 9.02 2.84 9.02 7.85 0 3.51-2.67 7.51-10.02 7.51h-12.36c-12.86 0-30.22 5.84-30.22 18.7 0 13.02 15.53 13.36 24.54 13.69 5.01.17 9.68 3.34 9.68 9.35 0 2.17-1 10.68-11.69 10.68-16.69 0-29.88-14.86-29.88-32.05 0-12.69 5.84-17.7 8.68-20.03h-28.54zm14.86-25.71c-7.01 0-9.35-5.51-11.19-10.35-1.34-3.34-4.17-10.35-8.35-10.35-.5 0-2.5.67-3.01.67-.17 0-.67-.33-.67-.83 0-.83 9.18-4.34 17.03-4.34 12.52 0 17.2 9.35 17.2 14.36.01 6.5-5.5 10.84-11.01 10.84zm13.19 9.85c-1.84 0-2.17 0-2.17-.67 0-.17 4.84-2.5 5.68-3.17 9.18-6.51 11.52-16.86 13.52-25.21 2.67-11.35 11.52-11.35 13.35-11.35 6.51 0 12.02 4.17 12.02 12.19 0 16.36-23.7 28.21-42.4 28.21z" fill="#fafafa"/></svg>