<svg enable-background="new 0 0 61.37 61.02" viewBox="0 0 61.37 61.02" xmlns="http://www.w3.org/2000/svg"><g fill="#b14943"><path d="m39.42 16.03c0 .01-.01.02-.02.03.03 0 .03-.01.02-.03z"/><path d="m23.61 51.61c0 .01.01.02.02.02s0-.01-.02-.02z"/><path d="m3.15 12.98c-.11.02-.22.04-.34.07.12-.03.23-.05.34-.07z"/><path d="m58.76 7.5c.05.01.08.03.1.06.04-.02.08-.04.12-.06.01 0 .01-.01.02-.02-.16-.04-.16-.07-.33-.07.01.05.01.1.02.15.04-.03.07-.06.07-.06z"/><path d="m1.25 12.2c-.1.01-.21.06-.34.15-.81.6-.02 1.02.01 2.03.06-.07.12-.14.19-.2.06-.05.11-.11.17-.16.05.06.12.1.17.16.06.06.1.14.16.17.03.01.14-.07.13-.09-.06-.29.08-.5.26-.68-.06-.58-.21-1.08-.45-1.29-.01.02-.01.04-.01.04-.12-.05-.21-.09-.29-.13z"/><path d="m60.02 12.52c.02.05.05.1.07.14.04-.03.07-.07.11-.1-.04.03-.07.07-.11.1-.02-.04-.05-.09-.07-.14z"/><path d="m2.72 17.71c.01-.01.01-.01.02-.01-.02-.01-.04-.02-.06-.02.01 0 .02.02.04.03z"/><path d="m2.79 16.75c-.24-.18-.48-.31-.67-.48-.02-.01.08-.2.15-.23.12-.04.26-.02.38-.06.17-.05.37-.08.54-.15.05-.05 0-.08.04-.15.05 0 .07-.02.12-.03.09-.22.1-.22.14-.46-.05-.06-.12-.12-.18-.19-.11 0-.28-.04-.41-.04-.1-.13-.18-.2-.27-.28-.01-.01-.12.08-.18.13-.07.06-.13.08-.19.15-.06-.07-.1-.13-.17-.18s-.23-.12-.25-.1c-.18.19-.31.43-.48.65-.12 0-.29-.02-.45-.02-.08 1.13-.21 1.15-.01 2.26.07.42.27.34.54.68 0-.04-.02-.06-.02-.09-.15-.17-.21-.3-.37-.48.2-.02.25 0 .31-.02.27-.08.7.21.82-.31.09.04.16.08.24.13.03.02.07.04.11.07.07-.24.16-.41.27-.55-.01-.08-.01-.17-.01-.25z"/><path d="m59.75 7.99c.03.03.16 0 .17-.03.03-.09.1-.17.17-.25-.35-.12-.35-.15-.73-.16.12.16.25.3.39.44z"/><path d="m4.11 14.37c0 .01 0 .05.01.09.01-.02.02-.05.03-.07-.01-.02-.02-.02-.04-.02z"/><path d="m60.99 8.69c.04 0-.27-.26-.3-.3 0 .1.01.18.01.25.14.05.26.09.29.05z"/><path d="m58.89 5.53c.01.05.03.08.03.08 0-.02-.01-.05-.03-.08z"/><path d="m2.84 12.56c0 .01.06-.05.13-.11-.05.03-.14.07-.13.11z"/><path d="m58.98 14.72c-.03.05-.07.12-.05.24.02.07.19.06.4.03-.06-.09-.3-.14-.35-.27z"/><path d="m2.52 17.6c0 .01.06.04.16.07-.05-.05-.1-.08-.14-.11-.01.02-.02.03-.02.04z"/><path d="m58.96 14.66c0 .02 0 .04.01.06.04-.05.07-.07-.01-.06z"/><path d="m60.53 33.58c.11-.02.23-.04.22-.04-.07 0-.15.02-.22.04z"/><path d="m7.52 24.01c-.03-.01-.05-.01-.08-.02-.02.03-.04.05-.05.08v.01.01h.01c.03-.03.07-.06.12-.08z"/><path d="m7.52 24.01c.19.04.38.08.57.12-.05-.05-.09-.1-.13-.15-.07-.02-.14-.04-.22-.04s-.16.03-.22.07z"/><path d="m34.4 31.23-.49-.02c-.13 0-.26 0-.4.01-.06.03-.12.07-.19.1-.01.01-.02.02-.03.03.37.02.75-.02 1.11-.12z"/><path d="m33.19 31.18c-.04.03-.09.05-.14.06.06-.01.12-.01.19-.01.05-.01.1-.03.15-.04z"/><path d="m59.55 51.45.01-.01z"/><path d="m59.55 51.45c-.16.01-.32.03-.48.05-.03.03-.05.07-.06.11.19-.02.37-.08.54-.16z"/><path d="m60.26 51.71-1.13-.01c-.06.04-.12.07-.17.11.04-.04.08-.08.13-.11l-.86-.01c.28-.09.56-.16.85-.2.13-.17.4-.22.57-.11.04-.03.09-.05.13-.08-.04.03-.08.06-.13.08.02.01.04.03.06.05-.05 0-.11.01-.16.01-.11.06-.21.13-.32.19.24-.06.53-.01.79.04.08.02.16.03.24.04h.07c-.05-.17-.08-.35-.08-.58 0-1.4 1.07-1.4 1.07-2.81s-.1-1.41-.1-2.81c0-1.41-.22-1.42-.34-2.82-.22.17-.79.41-1.3.37.01-.25-.16-.84.28-.99.08-.03.29-.36.31-.58-.02-.01-.05-.03-.07-.04.3.05.97 0 1.07.13.06-1.26-.39-1.28-.39-2.53 0-1.26.54-1.26.54-2.52s.08-1.28.04-2.54c-.09.1-.8.15-.9.24-.02.01-.12.04-.18-.02-.06-.05-.08-.32-.12-.45.13-.06.25-.13.38-.18-.09.02-.16.03-.16.03 0-1.55.3-1.55.3-3.1s.36-1.55.36-3.1-.39-1.55-.39-3.1.35-1.55.35-3.1-.53-1.55-.53-3.1-.15-1.55-.15-3.1c-.01 0 .87-.37.87-.37-.12-.14-.57-.17-.65-.26-.06.08-.4.24-.46.31-.12.13-.3.16-.44.26-.09.01-.19.03-.28.04.01.02.02.03.02.05.11.09-.09.33-.12.48-.01-.13-.03-.38-.04-.35-.19.01.07.98-.12.99-.15.24-.02.73-.56.73-.01.2.29.18.28.3-.17.15-1.21 0-1.4.16-.1-1.15.33-1.13.8-2.19.68-1.53.75-1.41 1.83-2.7 0-.02.17-.1.17-.12-.03-.15-.15-.35-.43-.37-.04 0-.04-.07-.02-.11.03-.06.08.1.15.1.21-.03.52-.16.65-.47.06-.15-.21-.37-.03-.48.01-.06.04-.1.07-.15-.94.39-1.04.41-2.03 1.23.05.06-.12-.04-.07.02-.12.05.03.47-.09.51-.08.02-.17-.02-.21-.01.22-.18-.03-.51.19-.72-.04-.04-.15.24-.18.2-.15-.19.49-1.23-.01-1.23 0-.2-.09.13-.09.01.13-.15.02-.53.16-.61.07-.04.11.75.21.79.05.02.21-.38.31-.56.02.12.05.2.11.17 0 .28.74-.15.74.02.34.18.35.26.36.04.01-.11-.35-.59-.31-.7.07.07.24.52.32.58.05.04.16.16.22.15.05-.01-.29-.23-.29-.29.02-.14-.01-.58.08-.68.09-.12.65.15.74.04.03-.03.02-.12.05-.13.01-.55-.03-.64-.06-1.05-.22-.09-.49-.23-.53-.16-.04-.01.2.26.16.24-.01.19-.13.19-.15.52-.23-.2-.31-.13-.54-.32 0-.04-.04-.05-.09-.06.03.02.04.04.02.05s-.05-.02-.1-.07c-.07-.02-.15-.05-.2-.13.04.03.1.06.16.09-.13-.16-.31-.43-.36-.42-.04 0-.58.25-.59.18-.02-.19.46-.8.36-1-.05.02-.1.04-.15.07 0-.02-.01-.04-.01-.06 0 0-.01.01-.01.01 0-.03 0-.05 0-.05-.11.02-.09-.05-.23-.02-.01-.12-.01-.29-.02-.4-.22-.11-.39.45-.59.43-.03.05-.06-.13-.08-.13-.07-.02-.37-.14-.42-.2-.07-1.07.09-1.09.23-2.16.03-.2.2-.17.39-.1.05-.06-.13-.14-.06-.22.13 0 .38.41.6.41 0 .16.25.27.33.39-.03-.1-.07-.28-.08-.3 1.08.61.73 1.34 1.98 1.36-.04-1.15.08-2.29-.48-3.21-.58-.95-1.94-1.29-2.91-1.84-.94-.53-1.93-1-3.08-1-1.41 0-1.41-.38-2.83-.38-1.41 0-1.41-.13-2.83-.13-1.41 0-1.41.3-2.83.3-1.41 0-1.41.23-2.83.23-1.41 0-1.41-.09-2.83-.09-1.41 0-1.41-.44-2.83-.44-1.41 0-1.41 1.07-2.83 1.07-1.41 0-1.41-.53-2.83-.53-1.41 0-1.41.12-2.83.12-1.41 0-1.41-.15-2.83-.15-1.41 0-1.41.16-2.83.16-1.41 0-1.41.4-2.83.41v-.56c-.01.05-.1.15-.15.16-.25.01-.64-.3-.82-.3-.15.16-.08.62-.19.75.04-.01.36-.04.38-.05.01.19-.12.29-.11.47 0 0-.35.05-.35.05s-.43.26-.43.26.38-.42.38-.42c-.11.02-.13.13-.26.15-.01-.23-.34-.32-.36-.5.02.01.11.03.14.05-.08-.12.13-.67.01-.74-.11-.07-.45.16-.58.12-.09-.03-.42.41-.51.39.03.01.18.08.21.09-.18 0-.16-.09-.34-.09 0 .02-.26-.69-.26-.67-.36.25-.7.84-.62 1.37.02.12.17.25.14.38-.09-.08-.39.09-.49.01-.04-.03.1-.12.14-.14-.07.02-.31-.12-.34-.05-.06.15-.05.74-.08.74-.33-.03-.05-.57-.07-.74-.03-.26.27-.65.27-.93-.11-.03-.16-.19-.28-.21 0-.15-.37-.56-.37-.7-1.33-.07-1.36.95-2.7.95-1.29.03-1.29-.95-2.63-.95s-1.33 1.11-2.67 1.11c-1.18 0-2.55-.68-3.5-.13-.99.57-1.74 1.73-2.31 2.71-.55.96-.69 2.18-.69 3.36 0 1.17.57 1.17.57 2.34s-.84 1.21-.53 2.33c.07.25.14.38.29.47.11-.01.21.02.29.09.03-.07.09-.23.09-.23s-.05.15-.05.15c.58.22.49.47 1.07.68 0-.02-.27-.55-.27-.57s.55.06.61.08c.01 0 .01 0 .01.01.13-.11.28-.26.28-.25.17.07.27.17.4.3.02.23-.07.9-.32.81-.02.27.03.18.1.43.06.21-.03.44.12.63.07-.06.54-.01.61-.06-.01.04-.02.08-.03.11.1.07.05.38.18.43-.03.04-.08.03-.12.01-.05-.01-.08-.24-.09-.37-.15.31-.43.31-.49.76.12.14.34.35.48.52-.21.01-.21.06-.35.07-.26.74-.66.82-.96 1.22 0 .13.01.28.01.45-.01.12.01.17-.07.23.24.09.6.22.6.24-.01-.01-.66-.21-.66-.21-.15.5-.37.42-.54.91-.08.07.22.04.15.12-.08-.1-.37.29-.46.18-.08 0-.12-.17-.21-.17.05.07.08.13.12.18-.04-.03-.09-.05-.14-.05-.13-.01-.34.14-.51.22-.01 1.35.21 1.38.21 2.8 0 1.46.08 1.46.08 2.91 0 1.46-.32 1.46-.32 2.91 0 1.46-.12 1.46-.12 2.91 0 1.46.33 1.46.33 2.91 0 1.46-.78 1.46-.78 2.91 0 1.46-.15 1.46-.15 2.91 0 1.46.93 1.46.93 2.91 0 1.46.05 1.46.05 2.91 0 1.46-.26 1.46-.26 2.91v.22c0-.01 0-.01 0-.02.23.29.14.69.05 1.06l.06.18c-.03-.01-.06-.03-.09-.05 0 .02-.01.03-.01.05-.02.06-.02.14-.01.21.18-.06.36-.14.52-.25.04-.08.09-.14.18-.13-.06.05-.12.09-.18.13-.09.19-.1.5-.31.52-.13.01-.2-.12-.21-.26-.01 0-.02.01-.03.01-.01.31-.02.66-.02 1.24 0 1.46.18 1.46.18 2.91 0 1.4.37 2.51 1.13 3.57.26-.26.66.09.94-.18.11 0 .09-.5.3-.5.01.21.13.33.14.53.24.12-.06.19-.02.66.06-.02.31-.04.53-.07-.07.05-.13.09-.13.1.05.35.24.46.01.67-.14.13.06.6-.12.78 0 0-.55.06-.55.07.53.38 1.29.78 1.92.99.12-.09.64-.46.77-.56 0-.01 0-.01 0-.02.02.06.06.16.06.16.42.09.82.66 1.26.66 1.47 0 1.47-.58 2.93-.58 1.47 0 1.47.82 2.93.82 1.47 0 1.47-.01 2.93-.01 1.47 0 1.47-.59 2.93-.59 1.47 0 1.47.11 2.93.11 1.47 0 1.47-.06 2.93-.06 1.47 0 1.47.24 2.93.24 1.47 0 1.47-.58 2.93-.58 1.47 0 1.47-.01 2.93-.01 1.47 0 1.47.9 2.93.9 1.47 0 1.47-.65 2.93-.65 1.47 0 1.47.38 2.93.38 1.47 0 1.47-.13 2.93-.13 1.47 0 1.47-.76 2.93-.76 1.47 0 1.47.63 2.93.63 1.47 0 1.47-.15 2.93-.15 1.18 0 2.29-.2 3.24-.75.98-.57 2.13-1.21 2.69-2.19.55-.95 1.1-2.25 1.1-3.43 0-1.17-.76-1.37-1.01-2.22-.03-.03-.05-.03-.07-.04zm-.49-17.85c.09 0 .18-.02.25-.04-.08.07-.18.16-.22.2-.01.01-.01.01 0 .01-.09.06-.19.12-.2.09-.02-.15.17-.05.17-.26zm-.31 6.84c.26 0 .36.17.68.17.01.18-.13.34-.14.51-.22-.16-.4-.37-.7-.52.08-.11-.03.07.16-.16zm-.82-30.65c.03-.02.04.04.05.13-.04-.06-.07-.11-.05-.13zm-.04-2.41c-.03.02-.05.02-.05-.02 0 0 .03.01.05.02zm-56.55 11.96c-.01-.1-.03-.19-.05-.27.06.09.12.19.22.35-.09.05-.16-.08-.17-.08zm1.43 17.9-.66.25c-.01.01-.02.02-.03.04.01.02.03.02.04.04.16.01.33 0 .48.07-.15.09-.35.05-.48-.07-.05 0-.11-.01-.16-.02l-.13.05c-.06-.03-.08-.09-.09-.16-.11-.09-.18-.22-.12-.34s.2-.17.32-.2c.28-.07.56-.12.85-.14-.06.08-.17.1-.26.15s-.17.15-.12.24c.04.07.14.09.22.09h.14l.85-.33c.04.05.08.09.12.14-.31.12-.64.18-.97.19zm1.58 20.38c-.03.01-.11-.01-.2-.04.06 0 .13.01.18.01-.04-.04-.07-.08-.07-.1-.02-.14.01-.21.12-.26-.02.1-.05.21-.04.32-.03.03.29.25.25.28-.05-.04-.16-.13-.24-.21zm.11-.38s.01-.02.03-.05c.06-.01.14-.02.23-.03 0 .01-.26.09-.26.08zm18.1-54.98c.02-.13.03-.34.03-.3.01.08.05.15.08.23-.01.01-.01.01-.02.02.01 0 .01-.01.02-.01.04.08.07.17.07.25-.01 0-.04 0-.09 0-.09 0-.22-.01-.23-.01v.01c-.05 0-.08 0-.08 0 .01-.07.11-.13.22-.19zm-6.19 8.55c.24-.17.47-.36.67-.56-.03-.03-.05-.06-.05-.11-.31 0-.43-.27-.76-.27-.02-.23-.25-.18-.26-.4-.03-.02-.27.28-.3.25-.07-.05.01-.45-.06-.51.08-.05.29.13.37.12.21-.02.33-.24.28-.64.22 0 .69.2.91.2.01-.22-.29-.84-.27-1.05.33 0 1.06-.13 1.39-.13 0 .21-.49.29-.49.49-.48.03-.32 1.03-.33 1.33.06 0 .12.02.19.03.99-1.32 1.36-2.91 1.68-4.27.58-2.48 2.52-2.48 2.92-2.48 1.42 0 2.62.91 2.62 2.66 0 2.86-3.32 5.09-6.74 5.87-.01.01-.01.03-.01.04.02.02.03.03.03.03s-.02-.01-.05-.01c-.05.01-.07 0-.09-.02-.01 0-.01 0-.02-.01-.8.17-1.61.26-2.38.26-.4 0-.47 0-.47-.15-.01-.01 1.04-.52 1.22-.67zm-4.75-7.96c.01.08.27.16.26.24-.03.13-.19.35-.24.48-.06-.06-.11-.38-.17-.52.07-.11.14-.19.15-.2zm-.85-.41c.14 0 .1.36.18.45-.01 0-.02 0-.03 0 0-.04-.01-.08-.02-.09-.02-.02-.05-.03-.07-.04-.04-.12-.08-.27-.06-.32zm.12.8c0 .04 0 .07-.02.07-.01.01 0-.03.02-.07zm.49.76c2.73 0 3.75 2.04 3.75 3.14 0 1.42-1.2 2.37-2.41 2.37-1.53 0-2.04-1.2-2.44-2.26-.29-.73-.91-2.26-1.82-2.26-.11 0-.55.15-.66.15-.04 0-.15-.07-.15-.18.01-.2 2.02-.96 3.73-.96zm-4.08 9.88h13.49c1.09 0 1.6-.44 2.15-1.02.62-.69 1.06-1.17 2.01-1.17.87 0 1.97.62 1.97 1.71 0 .77-.58 1.64-2.19 1.64h-2.7c-2.81 0-6.6 1.28-6.6 4.08 0 2.84 3.39 2.92 5.36 2.99 1.09.04 2.11.73 2.11 2.04 0 .47-.22 2.33-2.55 2.33-3.65 0-6.53-3.24-6.53-7 0-2.77 1.28-3.86 1.9-4.37h-6.23c-.18 0-.87.11-1.02.11-.22 0-.77-.84-.91-.95-.07-.04-.44-.18-.44-.26-.01-.1.14-.13.18-.13zm18.9 15.89-.02.01c.04.01.08.02.12.04-.07 0-.14.01-.2.02.12.04.23.09.35.13-.21 0-.42 0-.62.01l-.37.2c.12-.06.24-.13.36-.2-.2 0-.4 0-.6.01.26-.07.53-.11.79-.13.01-.01.03-.02.04-.03-.06-.03-.13-.07-.13-.13 0-.01.01-.02.01-.03-.03-.05-.05-.1-.01-.15.05-.07.17-.05.22.02v.01c.21-.09.41-.18.62-.26-.18.16-.37.31-.56.45 0-.01 0 .01 0 .03zm-8.36 2.09c-.07-.11-.28-.4-.39-.56.11-.11.27.04.34-.04.06.12-.17.04-.16.16.01.1.27.35.21.44zm-1.18 1.42c-.06-.06-.4.05-.46-.02-.05.07-.26.05-.35.09.02-.02.05-.05.05-.07.04.01.11.03.08 0-.01-.01-.04-.01-.08-.01 0 0 0 0-.01 0s-.01 0-.01 0c-.12.03-.31.13-.36.08-.06.07-.5-.23-.56-.17-.14.14-.26.22-.45.41-.04 0 .23.39.13.35-.42-.16-.55.41-.86.5.04.09-.04.25-.07.37-.22-.06-.53-.03-.71-.18 0-.12-.29-.55-.29-.66.24-.27.71-.38.93-.62.05-.05.41.19.46.14.06-.06-.15-.28-.17-.29-.2-.17-.16-.56-.4-.74 0-.14-.4-.42-.4-.66.22 0 .58-.22.78-.26.12-.02.44.38.68.58.09.33.4.67.55.86.09.12.6-.51.7-.4.1-.11.21.22.33.13.02-.02.36-.26.43-.2.08.07.01.53.17.67 0-.33.25-.26.25-.43.35-.19.19-.45.15.43-.14.18-.29.38-.39.5-.04.04-.17-.25-.22-.26-.03.02.15-.09.1-.14zm-2.71 2.1c-.02-.02-.03-.07-.04-.12.03.04.05.09.04.12zm-.09-.51c0 .01 0 .02-.01.02 0 0-.01-.01-.01-.01.01 0 .02-.01.02-.01zm-1.27-1.99c.2 0-.06.13.16.13 0 .2.4.21.4.44-.21 0-.63 0-.84 0-.01-.2.28-.35.28-.57zm-.25-1.51v.09c-.11.01-.04-.04 0-.09zm.03-1.78s.01 0 .01-.01h.01c.01.01 0 .01-.02.01zm2.13 2.43h.08c0 .02.01.05.01.07-.05-.03-.09-.06-.09-.07zm.32 0h.06c0 .03-.02.02-.06 0zm-2.58-.72c-.16.03-.42.25-.49.17-.05-.06-.13-.26-.18-.32.07-.05.32.14.39.13.06-.01.17.01.28.02zm-.19-1.41c0-.04.02-.07.06-.11-.03.07-.05.14-.06.11zm-6.44 29.7c-.15.01-.04.04-.23.06.03-.09.09-.08.1-.28.21.02.08-.43.15-.33.18.27.31.06-.02.55zm1-35.47c-.03-.1.01-.2.07-.27 0-.01 0-.01 0-.02 0 0 0 0-.01 0 0-.01.01-.01.01-.02 0-.03.01-.06.02-.09-.02 0-.04-.01-.05-.01.03-.01.05-.03.08-.04.07-.11.18-.19.31-.16-.1.05-.2.1-.31.16-.01.02-.02.03-.03.05.01 0 .02 0 .03.01.11-.13.32-.17.45-.07l.06.06c.15.05.28.13.41.22-.01.01-.02.01-.04.02 0 0 .01.01.02.01.04.07-.04.15-.1.19-.15.1-.31.2-.49.22-.18.01-.38-.08-.43-.26zm19.96 24.51c-.15-.16.01-.61-.14-.77-.01-.01-.14-.04-.29-.05.09 0 .15-.01.17-.02.1-.13.08-.25.06-.31.01.01.02.03.03.04.16.21.14.55.37.75 0 .14.37.26.37.54-.14-.08-.5-.11-.57-.18zm-.9-8.25h-6.74v2.7c0 .4.04 2.08.07 2.41h1.02c.47 0 1.13-.07 1.64-.66.66-.73.91-1.06 1.57-1.06.77 0 1.53.69 1.53 1.53 0 .62-.4 1.42-1.68 1.42h-4.08c0 .84.04 2.08-.11 3.46 1.41.2 2.62.37 3.62.56.09-.07.18-.17.3-.22-.03.06-.06.12-.06.12 0 .05 0 .09-.01.14.27.05.52.11.76.16-.04-.08-.07-.18-.07-.28-.12-.02-.28.02-.4.02.02.06.04.11.04.11s-.14-.17-.24-.28c.02-.01.05-.01.07-.02-.02-.05-.04-.09-.04-.09s-.02.04-.04.09c-.05-.05-.08-.09-.08-.09.08-.1-.01-.11.02-.23.06-.2.64-1 .63-1-.28-.05-.25-.1-.22-.19.28.08.7.17.7.24.05.05.06.09.07.12.12-.02.27-.05.3-.11.08.1-.02 1.01.1 1.15l1.47.62c-.11.01-.33.11-.42.13-.12.03-.49-.15-.61-.12.07.07.06.26.07.37.9.4 1.35.94 1.35 1.78 0 1.02-.95 1.75-1.79 1.75-.55 0-.84-.11-3.28-1.09-.73-.29-1.71-.66-2.7-.95-.91 3.46-3.21 5.65-6.05 5.65-2.33 0-3.97-1.97-3.97-4.05 0-2.41 2.3-4.7 7.04-4.59.15-1.31.15-1.75.11-3.17h-3.32c-.18 0-.87.07-1.02.07-.18 0-.22-.04-.51-.51-.26-.4-.33-.4-.73-.51-.02-.02-.06-.02-.06-.13 0-.15.11-.15.18-.15h5.5v-5.1h-5.94c-.15 0-.84.11-.98.11-.22 0-.73-.8-.87-.91-.07-.04-.47-.22-.47-.29s.07-.15.18-.15h8.09v-1.2c0-1.13-.11-1.71-.36-1.97-.07-.07-.51-.26-.51-.33 0-.15.07-.18.58-.18 1.49 0 3.61.33 3.61 2.3v1.39h3.68c.58 0 1.17-.07 1.68-.69.58-.66.87-.98 1.53-.98.77 0 1.53.66 1.53 1.53 0 .64-.48 1.37-1.68 1.37zm-.42 8.16c-.08-.05-.42-.18-.49-.25-.07.09-.08.57-.17.7-.12 0 .12-.32-.1-.32 0-.3.06-.02.06-.38.2 0-.07-.21.05-.21.2-.24.28-.55.48-.79.12 0 .25.29.45.29.02.07.02.16.07.19.03.01.1.02.19.03-.03 0-.05.01-.06.01-.14.16.01.57-.15.7-.09.07-.28.09-.42.15.08-.05.12-.1.09-.12zm-.22.24c-.01.02-.01.04-.02.06-.02-.01-.01-.03.02-.06zm-2.69-1.18c.21 0 .4.44.64.44.01.23.33.11.34.32.21.01.03.38.37.4-.11.12-.32.07-.5.07 0-.02-.01-.03-.02-.05-.17-.01-.38-.06-.49-.07-.17-.18-.07-.25-.23-.41 0-.11.05.16.05-.05.11 0-.25-.65-.16-.65zm22.64-44.95c.87 0 4.12 0 4.12 2.7 0 1.35-1.09 2.41-2.41 2.41-.8 0-2.41-.55-2.41-2.62 0-1.42 0-1.97-1.02-1.97-.4 0-.62 0-.62-.15 0-.3 1.97-.37 2.34-.37zm-6.78 12.49c.06-.05.15-.03.23-.05.14-6.07 2.31-6.07 3.93-6.07.58 0 .66 0 .66.15 0 .11-.47.4-.51.47-.69.98-.77 4.41-.77 4.52 0 1.02.15 2.11 1.17 2.11.4 0 .8-.11 2.37-.66 1.86-.69 3.14-1.17 4.85-1.17 3.14 0 4.37 1.97 4.37 4.23 0 4.3-4.67 7.77-8.53 7.77-2.3 0-3.28-1.39-3.28-2.66 0-.29.07-.87.26-.87.07 0 .18.26.22.33.26.66 1.28.73 1.6.73 2.73 0 5.69-3.03 5.69-5.21 0-1.64-1.6-1.9-2.62-1.9-1.31 0-2.19.29-3.9.87-2.41.84-2.7.95-3.06.95-.33 0-2.44-.07-2.44-2.95 0-.07 0-.13 0-.2-.26-.08-.52-.18-.24-.39zm14.55 31.44c0 .23-.01.56-.01.8-.1-.01-.17-.12-.18-.14-.03-.18.12-.28.15-.46 0-.04-.07-.18.04-.2zm-.19-1.27c-.12.16.03.36.01.47-.05-.29-.46-.5-.64-.52-.09-.01.15.26.07.22.06-.08-.38-.19-.32-.27.07-.09.23-.22.33-.34.27 0 .46.35.77.35 0 .2-.22.01-.22.09zm-10.24-13.35c-.21.07-.44.09-.66.05l-.39-.16c.34-.02.66-.16.92-.39.01.18.06.35.13.5zm-5.3-14.68c.21 0 .08-.12.19-.12.16-.17.48-.21.67-.41 0-.03.01-.06.03-.09.1.05.22.09.34.11.15.02.18 1.01.04 1.11-.1.07-.23.19-.37.34-.33 0-.65-.34-1.09-.34-.01-.34.19-.25.19-.6zm.46 2.16c.02.18.19.01.21.26.12.01.17.27.23.43.17.02.43.03.4.06-.1.09-.28.21-.43.33-.14-.04-.28-.03-.36-.35-.11.08-.26.11-.39.16v.03c-.07.01-.13.07-.14.13.07.06.14.11.21.17-.09.05-.15.14-.18.24.07.03.17.14.25.21-.08-.04-.17-.08-.27-.13 0 .03-.01.06 0 .1.2.09.44.18.44.23-.14.16-.26.29-.35.39-.05.05-.22-.23-.28-.23-.02 0 .01-.02.05-.05.01 0 .01-.01.01-.01.04-.03.08-.07.06-.09-.01-.01-.02-.02-.03-.02.01-.07.01-.15.02-.22-.11-.21-.17-.44-.02-.61.06-.06.13-.1.21-.13l-.06-.4c-.13-.04-.24-.07-.28-.04-.09.05.1.41-.04.53-.02-.3.05-.67.04-.89-.12-.01-.19-.01-.23 0 .01-.02.02-.06.02-.12.43 0 .46.02.91.02zm-.93 1.55c.01-.04.02-.09.02-.17.06.05.03.11-.02.17zm.02-6.17c0 .14-.1.17-.16.23.01-.07 0-.23.16-.23zm-.75.48c.02-.01.03-.01.05-.02h.02c.02-.01.04-.01.05-.02.1-.1.25-.01.44-.16-.01.01-.01.03-.01.04-.1.12-.2.11-.3.18.05.04.08.09.07.15-.01.07-.06.11-.13.13.01.13.02.25 0 .25-.07-.06-.13-.13-.2-.2-.08.02-.16.04-.21.09l.14-.17c-.01-.01-.02-.02-.03-.04-.05.01-.1 0-.14-.03.02-.02.04-.04.06-.06-.02-.03-.05-.06-.08-.09-.01 0 .15-.02.27-.05zm-1.19 3.6c.01-.05.03-.09.05-.14l.02.05c.04-.07.08-.15.08-.27.24.19-.03.33.17.49 0 .17.41.3.41.59-.13-.1-.3-.21-.46-.31-.09.06-.2.08-.3.04-.01-.08-.01-.16-.01-.24-.02-.01-.04-.03-.06-.04.01-.07.05-.12.1-.17zm-1.68-3.97c0 .2.51.26.51.51-.11.01-.38.09-.49.1 0 0 .01-.29.01-.38.02.01.05.03.07.04-.01-.11-.07-.19-.13-.26.01 0 .02 0 .03-.01zm-.84-1.8c.03 0 .02.02 0 .04 0-.01 0-.02 0-.04zm.07.91c.01-.13-.03-.39-.06-.61.1.14.2.28.31.42 0 .05.03.14.07.24.28.26.43.65.38 1.03 0-.18-.07-.35-.18-.49.01.05.02.09.02.11-.2-.06-.51-.12-.72-.17-.1-.01.04-.28-.09-.29-.02-.3-.21-.16.27-.24zm-1.93 16.93-.01.01c-.02.33-.22.66-.54.75l.54-.75c0-.01 0-.01 0-.02.02-.33-.12-.66-.28-.95-.04-.08-.1-.16-.18-.19-.04 0-.07-.01-.11-.01.04-.01.07 0 .11.01.27.04.54.07.8.11-.13.15-.27.3-.4.45.02 0 .05.01.05.04.04.18.04.37.02.55zm3.32 15.97c-.03.05-.08.1-.14.13-.13.06-.28.04-.42.01-.02 0-.05-.01-.08-.02-.01.02-.03.03-.04.05.07.1.15.19.22.29.02 0 .03.01.04.01.15.03.36.06.38.22.01.08-.05.15-.11.2-.1.07-.23.07-.35.02 0 0-.01 0-.01.01l-.06.14c-.16-.45-.44-.85-.81-1.15.04-.03.07-.06.11-.09-.05-.11-.08-.23-.04-.34.04-.12.18-.21.29-.16-.02.19-.11.37-.25.5 0 .01.01.02.01.02.11.22.29.4.51.52.02-.06.04-.12.07-.18-.02-.03-.04-.06-.07-.09-.09-.04-.17-.11-.15-.21.05.07.1.14.15.21.03.02.07.03.11.04.02-.03.04-.06.07-.08.15-.14.35-.2.55-.22.01-.01.02-.03.03-.04.01.01.01.03.01.04.02 0 .05-.01.07-.01.01.07-.03.14-.09.18zm-.12-15.63c.08.03.16.1.17.18-.07.01-.14.01-.21.02-.01.04-.02.07-.04.1-.09.13-.24.21-.4.24-.06.01-.13.01-.18-.02-.08-.05-.09-.16-.05-.25-.34.03-.68.04-1.02.04.11-.21.32-.33.55-.44l-1.68.06c.44-.04.88-.06 1.32-.07-.02-.01-.05-.01-.07-.02l-1.52-.04c.18.03.34-.11.51-.16.33-.1.67.11 1.01.2l.48.01c-.01 0-.01 0-.02 0h.05c.09-.04.17-.07.26-.11.03-.03.05-.06.08-.09-.05 0-.11 0-.16.01-.23.05-.47.06-.7.07.12-.02.25-.03.37-.04-.06-.01-.1-.03-.13-.09l.41.02c.04-.02.08-.05.11-.08.27-.24.54-.49.81-.73 0 .24-.14.46-.32.61-.07.09-.15.16-.25.22l.36.01c.17 0 .34 0 .51.01.07-.02.14-.04.21-.07-.03.05-.09.07-.14.07.15.01.29.02.44.03-.22.17-.49.28-.76.31zm1.04-.44c-.16-.01-.35-.04-.48-.13l-.41-.03c-.14-.01-.28-.02-.41-.02.4-.35.94-.54 1.47-.49-.21.21-.49.35-.79.4.03.06.08.11.14.15l2.25.17h.19c-.04-.01-.08-.04-.12-.06l-.26-.14c-.03-.07.05-.15.12-.13.01.1.06.2.14.27l.12.06h.04c-.01 0-.03 0-.04 0l.01.01c-.01 0-.01-.01-.02-.01-.06 0-.12 0-.18 0h-.01c-.58 0-1.17-.01-1.76-.05zm17.85 25.55c0 1.17-1.02 1.53-1.46 1.53-.55 0-.73-.15-2.15-1.35-1.97 1.28-4.12 1.9-5.21 1.9-1.68 0-3.17-1.49-3.17-3.43 0-2.04 1.68-3.24 3.72-3.24 1.53 0 3.13.66 4.67 1.39 2-1.57 2.44-2.81 2.44-3.72 0-2.04-2.11-2.81-3.83-2.81-2.15 0-4.96 1.39-5.69 1.75-1.35.66-2.01 1.02-2.41 1.02-.69 0-1.49-.58-1.49-1.46 0-.58.04-.62 1.24-2.01 2.59-2.92 5.36-6.09 5.36-7.69 0-.62-.51-.84-1.28-.84-.84 0-1.93.29-2.26.4-.66.22-.73.22-.77.22-.22 0-.87-.69-1.06-.73-.04-.04-.4-.11-.4-.22 0-.22 2.22-1.02 4.63-1.02 4.12 0 5.58 2.11 5.58 3.46 0 1.79-1.42 3.5-3.1 5.1h.54c0-.02 0-.04.01-.06.01.02.03.04.04.06h.15c.16-.11.34-.38.52-.38 0 .07-.03.25-.05.4.06 0 .11.01.16.01.09-.13.17-.27.25-.31-.01-.04-.05-.44-.06-.48.26 0 .6.29.86.3.06 0-.11.27-.09.33.02.04.2.25.18.25-.07 0-.1.01-.11.03 3.1.5 4.49 2.07 4.91 3.73.03.02.05.03.05.06-.01.01-.02.02-.03.02.09.38.13.76.13 1.13 0 1.9-.84 3.43-2.11 4.81.85.65 1.29.98 1.29 1.85zm2.32-9.62c-.18 0-.53-.02-.73-.02-.13-.2 0-.62-.09-.85-.15-.37.48-.01.47-.32.29 0 .21-.21.52-.21.1.51.26 1.05-.17 1.4zm1.07-15.71c-.3.24-.74.25-1.09.09-.1.05-.2.11-.29.18l-.16.08h.12c-.05 0-.1.01-.15.02l-.05.03c.29.06.57.12.86.18-.54.24-1.14.33-1.72.27l-.66.34c.16-.12.31-.24.47-.37-.05-.01-.1-.02-.15-.03.2-.24.44-.45.7-.63-.15-.01-.29-.03-.43-.07.19-.01.38-.02.56-.02.16-.11.33-.2.51-.28-.01-.02-.03-.03-.04-.05.03 0 .06.01.08.03.02-.01.05-.02.07-.03.01-.01.01-.01.02-.02-.02-.01-.04-.01-.06-.02-.11.04-.23.07-.34.1-.08.02-.18.05-.26.01-.08-.03-.13-.15-.06-.21.22-.03.45.01.66.09.04-.01.09-.03.13-.04.35-.31.69-.62 1.03-.95-.07.32-.31.58-.59.74-.14.08-.28.15-.43.2-.02.02-.05.04-.07.07h.01c.32-.13.66-.22 1-.26.2-.02.47.02.51.22.01.13-.08.25-.18.33z"/><path d="m26.77 30.1h.03c-.01 0-.01 0-.02-.01z"/><path d="m26.75 30.08h.01c.01 0 .02.01.02.01l.1-.05c-.02 0-.03-.01-.05-.01-.02.01-.05.03-.08.05z"/><path d="m54.4 31.66c.02-.02.05-.04.07-.06-.03.02-.07.03-.1.05.01 0 .02 0 .03.01z"/><path d="m55.27 31.4c-.04-.02-.08-.05-.11-.08-.04.02-.09.04-.14.06.06 0 .12 0 .18-.01-.07.01-.15.02-.22.04-.04.04-.09.06-.13.09-.1.06-.2.12-.29.18.07.01.14.03.21.04.04-.01.08-.01.12-.01l.03-.02c-.08 0-.17 0-.25.01.18-.12.39-.21.6-.3z"/><path d="m26.74 29.84c-.04.02-.09.04-.11.08.02.03.06.06.09.08.03.01.07.02.11.03.02-.02.04-.03.07-.05-.01-.07-.02-.13-.06-.18-.03.01-.06.02-.1.04z"/><path d="m33.47 31.16c.02-.01.04-.01.06-.02.09-.04.18-.1.26-.16.01-.02.03-.03.04-.05-.13.06-.25.13-.36.23z"/><path d="m1.09 49.38c-.03-.09-.05-.18-.06-.27 0 .14-.01.26-.01.37.01.01.03.02.04.03.01-.04.02-.08.03-.13z"/><path d="m33.44 31.19c.01-.01.02-.02.04-.03-.03.01-.06.02-.09.03z"/><path d="m60.56 10.84c.12-.05.26-.11.41-.17.32-.13-.21-.09-.41.17z"/><path d="m59.55 8.86c-.03-.02-.07-.04-.11-.06.01.02.03.03.04.04.02.01.04.01.07.02z"/><path d="m43.54 54.49c0 .62.55 1.06 1.13 1.06.69 0 1.93-.51 2.37-.66-.66-.55-1.75-1.35-2.55-1.35-.41 0-.95.3-.95.95z"/><path d="m38.73 20.52c.03.01-.02-.03-.07-.07.02.03.04.06.07.07z"/><path d="m38.66 20.44c-.01-.02-.02-.03-.02-.05-.03 0-.05 0-.07-.01.02.02.06.04.09.06z"/><path d="m18.71 11.64c0 .01.01.01 0 0 .04.02.07.03.09.03h.01s0-.01.01-.02c-.01-.01-.02-.02-.03-.03-.02.01-.05.02-.08.02z"/><path d="m11.22 54.02c0 .66.66 1.2 1.53 1.2.4 0 2 0 2.95-2.55-.66-.11-1.24-.11-1.35-.11-1.82 0-3.13.58-3.13 1.46z"/><path d="m.86 19c-.01.18.09.16.22.1 0-.04 0-.07 0-.11-.03 0-.27.01-.22.01z"/><path d="m33.76 15.46v.03c.04.01.03-.01 0-.03z"/><path d="m23.62 50.76c.03.08.07.19.08.18h.06c-.03-.09-.06-.2-.06-.19-.04.01-.06.01-.08.01z"/><path d="m38.48 20.36c0 .01.03.01.08.02-.05-.02-.09-.04-.08-.02z"/><path d="m24.72 49.73c-.09-.06-.05-.08-.06-.13-.08.02-.15.03-.18.04-.09.05.31.14.24.09z"/><path d="m5.04 57.86c.01.01.01.01.02.02.01 0 .01-.01.01-.01.01 0 0-.01-.03-.01z"/><path d="m23.23 2.61c.01.01.02 0 .03-.03-.03.03-.04.04-.03.03z"/><path d="m23.37 2.47c-.03.02-.06.03-.09.05 0 .02-.01.04-.01.06.02-.03.05-.07.1-.11z"/><path d="m33.24 14.74c.07.04.12.09.17.15-.04-.14-.13-.36-.2-.54-.02-.02-.04-.04-.06-.05z"/><path d="m33.47 14.88c0 .09.03.15.08.21-.01-.09-.03-.18-.08-.21z"/><path d="m36.42 15.8c.03 0 .06-.01.08-.03l-.05.06c.02.03.05.05.07.08.07-.01.14-.03.19-.05-.01-.12-.01-.24.02-.26.01-.01.03-.02.04-.03-.05-.03-.11-.05-.17-.04-.02.01-.04.01-.07.02-.08.03-.14.09-.2.15.03.04.06.07.09.1z"/><path d="m35.61 19.57c.01-.01.02-.01.03-.02-.01-.1-.06-.2-.14-.26l-.09-.21c-.02.03-.05.06-.07.09-.02.07-.03.14-.03.21.09.05.19.12.3.19z"/><path d="m37.65 21.33c.05.1.12.19.18.27-.07-.07-.1-.16-.11-.26-.02-.01-.05-.02-.07-.03z"/><path d="m37.68 21.16c-.01.01-.02.03-.02.06l.06.03c0-.03.01-.06.02-.08-.02-.02-.04-.02-.06-.01z"/><path d="m37.72 19.81.06.39c.18.05.38.12.43.1.01.05.02.1.03.14.03-.02.06-.05.09-.09-.21-.18-.41-.36-.61-.54z"/><path d="m33.02 31.42c-.13 0-.26 0-.39 0 .13.04.26.05.39 0z"/><path d="m33.06 31.42c-.03.01-.06.03-.09.04l1.06-.02c-.32-.01-.64-.02-.97-.02z"/><path d="m1.03 49.11c.01-.21.01-.45.01-.78-.05.26-.06.53-.01.78z"/><path d="m.73 48.78c.04-.16.13-.33.05-.48-.12-.22-.48-.09-.57.14s-.01.49 0 .73c.01.27-.06.54-.21.77l.98-.15c.01 0 .01 0 .02-.01 0-.1.01-.2.01-.3-.22-.15-.34-.44-.28-.7z"/><path d="m61.28 51.72-.96-.01v.01c.33.04.65.04.96 0z"/></g></svg>