<svg enable-background="new 0 0 308.73 342.94" viewBox="0 0 308.73 342.94" xmlns="http://www.w3.org/2000/svg"><g fill="#f4b345"><path d="m13.1 243.61c.67-1.34.67-1.67-1-3.67s-4.01-8.68-4.67-10.35-1.34-8.68-1.34-11.02-.67-6.68-1.67-8.01-1-5.01.33-8.35c1.34-3.34.67-17.03-.33-18.36s-.67-3.34-.67-5.01-1 0-1 0-1.67 3.01-1.34 4.67c.33 1.67.33 3.67-1 17.03s1 15.69 1 19.03 2.34 11.69 2.34 11.69c2 11.69 7.01 12.69 8.01 15.03s3.01 6.68 3.01 6.68-2.34-8.03-1.67-9.36z"/><path d="m305.93 177.16s-2.67-6.34-.67-9.68-3.34-12.02-3.67-14.36-2-10.68-17.36-42.4h-1.34s-6.34-16.69-26.04-33.39c0 0-5.01-6.01-8.01-6.34 0 0-4.34-2.67-5.34-4.01s-3.01-2.67-18.03-10.02l-1.67-2-6.01-1s-6.68-6.01-50.42-13.69c0 0-3.01-1.34-3.67 0 0 0-1 1.67-2 .33s-3.34-.33-3.34-.33l-1.34-.67h-5.68s-3.67-2.67-6.01-3.01c0 0-1-1-2.34 2 0 0-1 1.67-3.01-1.34-2-3.01-5.01 0-5.01 0s-.67 1.34-5.34 1l-4.67-.33s-2 .67-3.67 1.67-6.01 5.34-15.03 7.35c-9.02 2-10.35 2-19.7 7.68s-13.02 6.68-13.02 6.68-8.35 3.67-18.36 15.69-13.36 13.36-13.36 13.36l6.01-2.34s17.7-18.03 44.41-29.38h5.01s13.02-5.01 20.7-.67c0 0 5.01 2.67 6.01.67 0 0 3.67 2.34 5.34.67s3.34 0 3.34 0 3.67 2.34 8.68-.67 6.34-5.34 7.01-6.34 1.67-1.34 2.34-1c.67.33.33 2.67 8.01-3.01s60.77 10.02 87.48 33.72c0 0 7.01 10.68 11.02 11.02l10.68 11.69s3.67 6.34 8.01 10.02c0 0 6.34 12.69 8.01 14.02 1.67 1.34 1.67 4.67 1.67 4.67s5.68 16.36 7.68 18.03c0 0 6.34 14.36 6.01 56.76 0 0-2.67 2.67 0 5.34 0 0 3.01 37.06-36.06 83.14h-3.01l-9.35 8.01s-3.01 0-14.36 11.69l-6.01 1s-2.67 1-4.01 2.34-12.69 11.69-15.69 13.02l-2.67 1-.33 1.67-6.68 4.34 7.35-2.34s6.68.67 14.69-4.01c0 0 3.67-1.34 8.01-.67s14.02-3.67 14.69-8.68l9.35-9.02s2.67-1 3.01-4.01c0 0 4.34-3.34 6.01-13.02 0 0 25.71-28.38 29.38-46.75 0 0 7.35-12.02 8.68-33.39 0 0 6.68-8.35 6.01-17.36.01.02 2.02-2.65-2.32-23.35z"/><path d="m190.73 342.11s-.67-2 1-1.34c1.67.67 3.67 1 3.67 1s0 1-.67 1c-.66 0-2.66.67-4-.66z"/><path d="m219.79 43.19c.19-.07.38-.16.57-.28 1.33 2.71 4.85 1.49 4.4-1.08-.23-1.32-1.25-1.78-2.15-1.74.87-1.86 1.3-4.21.97-6.17-.6-3.55-2.02-5.8-3.03-8.34-.71-1.79-.1-3.26-.4-6.28-.04-.38-.07-2.4-.5-3.97 14.2-1.25 12.66-7.83 11.86-8.99-.83-1.21-2.18-1.71-4.46 1.93-1.21 1.94-3.77 3.31-5.89 4.16 4.55-3.36 5.43-8.51 4.14-11.23-1.17-2.48-4.81-.86-4.07 2.44.93 4.15-2.57 7.76-3.33 8.49.06-.17-.08-.52-1.23-1.19-1.85-1.09-5.27-.25-7.6.11-1.34-.47-1.85 1.33-1.53 1.59 0 0-.39 1.8.23 2.55-.15.33-1.08 2.91 1.65 5.79.95 1 1.31 2.09 1.34 3.2-.03 0-.05.01-.08.01-1.4-.1-2.69-.15-3.11-.01-1.09.36-4.03-1.78-4.03-1.78s-.21-1.71-2.23-1.78l-2.8-9.12c2.3-.79 4.18-1.47 4.18-1.47 4.01-1.69.42-7.94-1.71-7.18-2.12.76-8.34 4.56-11.24 6.16-2.52 1.4-.48 5.09 1.11 4.82 1.11-.18 3.69-1 6.16-1.83.71 2.3 1.86 5.9 2.86 9.06-.48.56-.33 1.53.02 2.32-.93 1.1.78 3.28 1.62 3.43.05.01.12.02.18.03.09.29.15.52.18.64.27 1.15 1.2 1.38 1.14-.4.93.17 2.05.38 3.14.63 1.16.27 2.92.04 4.03-.15-.48 1.59-1.04 3.07-.82 4.25-3.71-3.75-7.84 2.01-7.9.86-.07-1.47-.33-2.87-1.93-3.5s-2.55.97-1.58 2.56c.96 1.59 1.1 3.89 2.25 5.09 1.15 1.21 2.29-.46 3.38-1.03 1.08-.58 1.53.76 4.99 4.7 2.02 2.3 4.5 3.68 6.81 3.94-1.59 2.82.24 4.82.63 5.15.45.38-1.27 1.6-2.48.84s-3.7.4-.88 2.11c2.81 1.71 7.58-1.81 7.96-3.22s-1.02-1.14-2.31-2.41c-.66-.65-.27-1.88.25-2.92.43-.2.85-.46 1.24-.79z"/></g></svg>